<svg width="50" height="50" viewBox="0 0 50 50" fill="none" xmlns="http://www.w3.org/2000/svg">
<path d="M37.6719 34.7656C37.8594 35 38 35.2812 38 35.5625C38 35.8906 37.8594 36.1719 37.6719 36.3594L36.3594 37.6719C36.125 37.9062 35.8438 38 35.5625 38C35.2344 38 34.9531 37.9062 34.7656 37.6719L30.0781 32.9844C29.8438 32.7969 29.75 32.5156 29.75 32.1875V31.4375C27.9688 32.8438 26 33.5 23.75 33.5C21.9688 33.5 20.3281 33.0781 18.8281 32.1875C17.3281 31.3438 16.1562 30.1719 15.3125 28.6719C14.4219 27.1719 14 25.5312 14 23.75C14 21.9688 14.4219 20.375 15.3125 18.875C16.1562 17.375 17.3281 16.2031 18.8281 15.3125C20.3281 14.4688 21.9688 14 23.75 14C25.5312 14 27.125 14.4688 28.625 15.3125C30.125 16.2031 31.2969 17.375 32.1875 18.875C33.0312 20.375 33.5 21.9688 33.5 23.75C33.5 26 32.7969 28.0156 31.4375 29.75H32.1875C32.4688 29.75 32.75 29.8906 32.9844 30.0781L37.6719 34.7656ZM23.75 29.75C24.8281 29.75 25.8125 29.5156 26.75 28.9531C27.6875 28.4375 28.3906 27.7344 28.9531 26.7969C29.4688 25.8594 29.75 24.875 29.75 23.75C29.75 22.6719 29.4688 21.6875 28.9531 20.75C28.3906 19.8125 27.6875 19.1094 26.75 18.5469C25.8125 18.0312 24.8281 17.75 23.75 17.75C22.625 17.75 21.6406 18.0312 20.7031 18.5469C19.7656 19.1094 19.0625 19.8125 18.5469 20.75C17.9844 21.6875 17.75 22.6719 17.75 23.75C17.75 24.875 17.9844 25.8594 18.5469 26.7969C19.0625 27.7344 19.7656 28.4375 20.7031 28.9531C21.6406 29.5156 22.625 29.75 23.75 29.75Z" fill="#DFDEDE"/>
</svg>
